<svg width="24" height="24" viewBox="0 0 24 24" fill="none" xmlns="http://www.w3.org/2000/svg">
<mask id="mask0_128_119" style="mask-type:luminance" maskUnits="userSpaceOnUse" x="0" y="0" width="24" height="22">
<path d="M24 0H0V21.8698H24V0Z" fill="white"/>
</mask>
<g mask="url(#mask0_128_119)">
<path d="M12 21.5141C10.84 21.5141 9.6 21.259 9.6 21.259C5.24 20.2749 2 16.7028 2 12.4017C2 12.0372 2 11.7092 2.08 11.3447C3.36 11.3082 4.88 11.5269 4.44 11.9279C3.76 12.5475 4.08 15.0625 5.48 14.1149C6.88 13.1671 7.56 11.9279 7.2 10.9801C6.84 10.0325 9.6 9.74086 9.6 11.3082C9.6 12.8755 8.92 12.5474 8.56 13.4952C8.2 14.4428 8.92 14.4428 9.24 14.7709C9.6 15.099 10.6 15.7187 9.6 17.9056C8.8 19.5458 10.68 20.7487 12 21.5141ZM18.88 13.0214C19.56 13.641 18.2 13.969 17.84 14.9168C17.48 15.8644 16.12 15.8644 15.76 15.5363C15.4 15.2083 14.72 14.9168 14.04 14.5887C13.36 14.2606 14.04 13.6409 14.72 13.969C15.4 14.2971 15.68 13.0214 16.44 13.0214C16.84 13.0214 18.2 12.4017 18.88 13.0214ZM15.8 3.98182C18.64 5.03886 20.84 7.29874 21.68 10.0325C20.4 10.5428 18.36 10.7614 17.88 10.5428C17.2 10.2147 17.2 8.64738 15.96 8.61094C15.48 8.61094 14.92 10.5063 14.24 10.7979C13.56 11.126 13.2 9.85021 12.52 8.90253C11.84 7.95483 13.56 7.00715 14.24 7.00715C14.92 7.00715 14.92 5.43981 14.92 5.11177C14.92 4.78372 14.24 4.41923 14.44 3.54443C15.2 3.76313 15.8 3.98182 15.8 3.98182ZM12.44 18.1243C12.8 18.4523 13.12 19.072 12.8 19.3636C12.44 19.6917 11.76 19.6917 11.44 19.3636C10.92 18.9262 12.12 17.7963 12.44 18.1243Z" fill="#50DD8E"/>
</g>
<mask id="mask1_128_119" style="mask-type:luminance" maskUnits="userSpaceOnUse" x="0" y="0" width="24" height="22">
<path d="M24 0H0V21.8698H24V0Z" fill="white"/>
</mask>
<g mask="url(#mask1_128_119)">
<path d="M12.8001 19.3633C13.1601 19.0353 12.8001 18.4157 12.4401 18.1241C12.0801 17.796 10.9201 18.926 11.4001 19.3633C11.7601 19.6914 12.4401 19.6914 12.8001 19.3633ZM17.8401 14.9165C18.2001 13.9688 19.5601 13.6407 18.8801 13.0211C18.2001 12.4014 16.8001 13.0211 16.4801 13.0211C15.7201 13.0211 15.4401 14.2604 14.7601 13.9688C14.0801 13.6407 13.4001 14.2968 14.0801 14.5884C14.7601 14.9165 15.4401 15.2081 15.8001 15.5361C16.1201 15.8642 17.5201 15.8642 17.8401 14.9165ZM21.9201 11.1257C22.0001 11.5266 22.0001 11.9641 22.0001 12.4014C22.0001 17.4315 17.5201 21.5139 12.0001 21.5139C10.6801 20.7484 8.80007 19.5456 9.60007 17.9053C10.6401 15.7184 9.60008 15.0623 9.24008 14.7707C8.88008 14.4426 8.20007 14.4426 8.56007 13.4949C8.92007 12.5472 9.60007 12.8753 9.60007 11.3079C9.60007 9.74062 6.84007 10.0687 7.20007 10.9799C7.56007 11.9276 6.84008 13.1669 5.48008 14.1146C4.12008 15.0623 3.76008 12.5472 4.44008 11.9276C4.92008 11.4902 3.40008 11.2715 2.08008 11.3444L2.32007 10.2144C2.60007 9.01163 3.64007 7.2256 4.52007 6.42371C4.52007 6.42371 5.04008 5.91341 5.64008 5.51247L7.20007 7.29849L8.80007 5.47602C9.12007 5.14797 9.76007 4.16384 9.96007 3.36194H10.0401C10.7201 3.25259 11.8801 3.28903 12.0401 3.28903C12.8801 3.28903 13.7201 3.39838 14.4801 3.58063C14.2801 4.45542 14.9601 4.81992 14.9601 5.14797C14.9601 5.47602 14.9601 7.04335 14.2801 7.04335C13.6001 7.04335 11.8801 7.99104 12.5601 8.93873C13.2401 9.88642 13.6001 11.1257 14.2801 10.8341C14.9601 10.5061 15.5201 8.61069 16.0001 8.64714C17.2001 8.68358 17.2001 10.2874 17.9201 10.579C18.4001 10.7977 20.4401 10.579 21.7201 10.0687L21.9201 11.1257Z" fill="#80D6FA"/>
</g>
<mask id="mask2_128_119" style="mask-type:luminance" maskUnits="userSpaceOnUse" x="0" y="0" width="24" height="22">
<path d="M24 0.00976562H0V21.8796H24V0.00976562Z" fill="white"/>
</mask>
<g mask="url(#mask2_128_119)">
<path d="M7.60039 2.92452C7.60039 2.74227 7.40039 2.56002 7.20039 2.56002C7.00039 2.56002 6.80039 2.74227 6.80039 2.92452C6.80039 3.10677 7.00039 3.28902 7.20039 3.28902C7.40039 3.28902 7.60039 3.10677 7.60039 2.92452ZM10.0004 2.92452C10.0004 3.07032 9.96039 3.21612 9.96039 3.36192C9.76039 4.16381 9.16039 5.14795 8.80039 5.476L7.20039 7.29848L5.64039 5.51245L5.60039 5.476C5.20039 5.00215 4.40039 3.83576 4.40039 2.92452C4.40039 1.50299 5.64039 0.373047 7.20039 0.373047C8.76039 0.373047 10.0004 1.50299 10.0004 2.92452Z" fill="#FF7474"/>
</g>
<mask id="mask3_128_119" style="mask-type:luminance" maskUnits="userSpaceOnUse" x="0" y="0" width="24" height="22">
<path d="M24 0.00976562H0V21.8796H24V0.00976562Z" fill="white"/>
</mask>
<g mask="url(#mask3_128_119)">
<path d="M11.9998 21.6962C11.9598 21.6962 11.9198 21.6962 11.8798 21.6598C10.8798 21.0766 8.4798 19.7279 9.3998 17.8326C10.3198 15.9007 9.5598 15.3175 9.1998 14.9895C9.1598 14.9531 9.1198 14.9166 9.1198 14.9166C9.0398 14.8437 8.95981 14.8072 8.83981 14.7343C8.51981 14.5521 8.0398 14.2969 8.3598 13.4586C8.5198 13.0577 8.7198 12.8753 8.8798 12.6931C9.1598 12.438 9.3598 12.2193 9.3598 11.3445C9.3598 10.8707 9.0398 10.652 8.7998 10.5426C8.3198 10.3604 7.67981 10.4333 7.43981 10.652C7.27981 10.7613 7.3198 10.9071 7.3198 10.9801C7.6798 12.0006 6.9598 13.3493 5.5198 14.3334C4.8398 14.8072 4.39981 14.4791 4.23981 14.2969C3.71981 13.7137 3.67981 12.3286 4.23981 11.8548C4.27981 11.8183 4.27981 11.8183 4.27981 11.8183C4.19981 11.709 3.31981 11.5267 2.23981 11.5632C2.19981 11.8548 2.1998 12.1464 2.1998 12.438C2.1998 16.5568 5.23981 20.1288 9.63981 21.1131C9.75981 21.1494 9.7998 21.2223 9.7998 21.3317C9.7598 21.441 9.6798 21.4775 9.5598 21.4775C4.9998 20.4569 1.7998 16.7391 1.7998 12.438C1.7998 12.0371 1.83981 11.709 1.87981 11.3445V11.308C1.87981 11.2716 1.9198 11.2716 1.9198 11.2352C1.9598 11.1987 1.9598 11.1987 1.9998 11.1987H2.03981C2.15981 11.1987 4.35981 11.1258 4.63981 11.6726C4.67981 11.7455 4.7198 11.9277 4.5198 12.0735C4.1198 12.438 4.1598 13.6044 4.5598 14.0418C4.6798 14.1512 4.8798 14.2969 5.3198 14.0053C6.6398 13.1305 7.2798 11.9277 6.9598 11.0529C6.8798 10.7977 6.9198 10.5426 7.1598 10.3604C7.5598 10.0323 8.3598 9.95942 8.9598 10.1782C9.4798 10.3968 9.7598 10.7977 9.7598 11.308C9.7598 12.3651 9.4398 12.6567 9.1598 12.9118C8.9998 13.0577 8.8398 13.2399 8.7198 13.568C8.51981 14.1512 8.71981 14.2605 9.03981 14.4063C9.15981 14.4791 9.2798 14.5521 9.3598 14.625C9.3998 14.6615 9.39981 14.6614 9.43981 14.6979C9.87981 15.0623 10.7598 15.8278 9.7598 17.9783C9.1198 19.3634 10.5198 20.4569 12.0398 21.3317C17.3998 21.2953 21.7998 17.3223 21.7998 12.4015C21.7998 12.0006 21.7598 11.5632 21.7198 11.1623C21.7198 11.0529 21.7998 10.9801 21.8798 10.9436C21.9998 10.9436 22.0798 11.0164 22.1198 11.0893C22.1998 11.5267 22.1998 11.9642 22.1998 12.3651C22.1998 17.541 17.6398 21.6962 11.9998 21.6962ZM12.1198 19.8008C11.7998 19.8008 11.5198 19.6915 11.2798 19.5093C11.1198 19.3634 11.0798 19.1447 11.1198 18.8896C11.2398 18.4522 11.7198 17.9783 12.1198 17.9055C12.3598 17.8326 12.5198 17.9418 12.5598 17.9783C12.9598 18.3428 13.3598 19.0718 12.9198 19.5093C12.7198 19.6915 12.4398 19.8008 12.1198 19.8008ZM12.2798 18.2335C12.1998 18.2335 11.8798 18.3793 11.6798 18.7074C11.5598 18.8896 11.4398 19.1447 11.5598 19.2541C11.8398 19.5093 12.3998 19.5093 12.6398 19.2541C12.8798 19.0353 12.5998 18.5251 12.2798 18.2335C12.3198 18.2335 12.3198 18.2335 12.2798 18.2335ZM16.4798 15.9007C16.1198 15.9007 15.7998 15.8278 15.6398 15.6456C15.3198 15.354 14.6398 15.0259 13.9598 14.7343C13.5198 14.5521 13.5198 14.224 13.5998 14.0418C13.7598 13.7137 14.2798 13.5679 14.7998 13.7866C14.9998 13.8596 15.1198 13.7866 15.4398 13.4221C15.6798 13.1305 15.9998 12.8025 16.4398 12.8025C16.4798 12.8025 16.6398 12.7661 16.7998 12.7296C17.3998 12.5838 18.3998 12.3286 18.9998 12.8753C19.1598 13.0212 19.2398 13.167 19.2398 13.3493C19.2398 13.6409 18.9998 13.8596 18.7198 14.1147C18.4398 14.3334 18.1598 14.625 18.0398 14.9531C17.8798 15.4269 17.4798 15.7185 16.9198 15.8642C16.7998 15.9007 16.6398 15.9007 16.4798 15.9007ZM14.3598 14.0782C14.1598 14.0782 14.0398 14.1512 13.9998 14.224C13.9598 14.2969 14.0798 14.3698 14.1598 14.4428C14.8398 14.7707 15.5598 15.0988 15.9198 15.4269C16.0398 15.5362 16.3998 15.6091 16.8398 15.5362C17.0798 15.4998 17.5198 15.3175 17.6798 14.8801C17.8398 14.4428 18.1998 14.1147 18.4798 13.896C18.6798 13.7137 18.8798 13.5315 18.8798 13.4221C18.8798 13.3493 18.8398 13.2764 18.7598 13.2034C18.3198 12.8025 17.5198 13.0212 16.9598 13.167C16.7598 13.2399 16.5998 13.2763 16.4798 13.2763C16.1998 13.2763 15.9998 13.495 15.7998 13.7502C15.5198 14.0418 15.1998 14.4428 14.6798 14.1876C14.5598 14.0782 14.4798 14.0782 14.3598 14.0782ZM13.9998 11.0164C13.5198 11.0164 13.1998 10.4333 12.8798 9.85007C12.7198 9.55847 12.5598 9.26688 12.3598 8.97528C12.1198 8.64723 12.1198 8.28274 12.3198 7.91825C12.7198 7.26215 13.7598 6.78831 14.2398 6.78831C14.4798 6.78831 14.7198 6.3509 14.7198 5.07517C14.7198 5.03871 14.6398 4.92938 14.5598 4.82003C14.3998 4.56488 14.1198 4.20038 14.1998 3.65363C13.3598 3.47138 12.4398 3.39849 11.5598 3.43493C11.4398 3.43493 11.3598 3.36203 11.3598 3.25268C11.3598 3.14333 11.4398 3.07044 11.5598 3.07044C12.5198 3.03399 13.5198 3.14334 14.4798 3.36204C14.5998 3.39849 14.6398 3.47138 14.6398 3.58073C14.5198 4.09103 14.7198 4.38263 14.9198 4.63777C15.0398 4.78358 15.1198 4.92937 15.1198 5.07517C15.1198 6.46025 14.8398 7.1528 14.2398 7.1528C13.8398 7.1528 12.9598 7.55374 12.6398 8.06404C12.4798 8.31919 12.5198 8.53789 12.6798 8.75658C12.8798 9.04818 13.0798 9.37622 13.2398 9.63138C13.6398 10.3604 13.8798 10.6885 14.1598 10.5791C14.4398 10.4333 14.7598 9.88652 14.9998 9.41268C15.3598 8.79303 15.5598 8.35563 15.9598 8.35563C16.7998 8.39209 17.1598 9.04817 17.4398 9.59492C17.5998 9.92297 17.7598 10.2145 17.9598 10.3239C18.3198 10.5061 20.1198 10.3239 21.4398 9.88652C20.5998 7.2986 18.4798 5.14806 15.7198 4.12748C15.5998 4.09103 15.5598 3.98168 15.5998 3.87233C15.6398 3.76298 15.7598 3.72653 15.8798 3.76298C18.7998 4.85646 21.0398 7.1528 21.8798 9.92298V9.95941C21.8798 9.99587 21.8798 9.99587 21.8798 10.0323C21.8798 10.0688 21.8398 10.0688 21.8398 10.1052L21.7998 10.1417C20.5198 10.652 18.3998 10.9071 17.8398 10.652C17.5198 10.5061 17.3198 10.1417 17.1198 9.77717C16.8398 9.26687 16.5998 8.79303 15.9998 8.75658C15.8798 8.79303 15.5998 9.30333 15.3998 9.63138C15.0798 10.1782 14.7598 10.7613 14.3598 10.9436C14.1998 10.9801 14.1198 11.0164 13.9998 11.0164ZM2.27981 10.3968H2.23981C2.11981 10.3604 2.07981 10.2875 2.07981 10.1782C2.39981 8.90238 3.4398 7.11635 4.3198 6.31446C4.3998 6.24155 4.5198 6.24155 4.5998 6.31446C4.6798 6.38735 4.6798 6.49671 4.5998 6.5696C3.7598 7.2986 2.75981 9.08463 2.47981 10.251C2.47981 10.3239 2.39981 10.3968 2.27981 10.3968ZM7.1998 7.48085C7.1198 7.48085 7.07981 7.44439 7.03981 7.40794L5.43981 5.58546C4.95981 5.00227 4.1998 3.83588 4.1998 2.92465C4.1998 1.43021 5.5598 0.190918 7.1998 0.190918C8.8398 0.190918 10.1998 1.43021 10.1998 2.92465C10.1998 3.90878 9.3198 5.22097 8.9598 5.58546L7.3598 7.40794C7.3198 7.44439 7.2798 7.48085 7.1998 7.48085ZM7.1998 0.555415C5.7598 0.555415 4.5998 1.61246 4.5998 2.92465C4.5998 3.72654 5.3598 4.89293 5.7598 5.36677L7.1998 7.00701L8.63981 5.36677C9.03981 4.92938 9.7998 3.72654 9.7998 2.92465C9.7998 1.61246 8.6398 0.555415 7.1998 0.555415ZM7.1998 3.47138C6.8798 3.47138 6.5998 3.21624 6.5998 2.92465C6.5998 2.63304 6.8798 2.3779 7.1998 2.3779C7.5198 2.3779 7.7998 2.63304 7.7998 2.92465C7.7998 3.21624 7.5198 3.47138 7.1998 3.47138ZM7.1998 2.74239C7.0798 2.74239 6.9998 2.8153 6.9998 2.92465C6.9998 3.03399 7.0798 3.10689 7.1998 3.10689C7.3198 3.10689 7.3998 3.03399 7.3998 2.92465C7.3998 2.8153 7.3198 2.74239 7.1998 2.74239Z" fill="#51565F"/>
</g>
<path d="M19.6271 17.018C21.2199 17.018 22.5111 15.7958 22.5111 14.2883C22.5111 12.7807 21.2199 11.5586 19.6271 11.5586C18.0343 11.5586 16.7432 12.7807 16.7432 14.2883C16.7432 15.7958 18.0343 17.018 19.6271 17.018Z" fill="url(#paint0_radial_128_119)"/>
<path d="M15.8666 14.4972H15.583C15.4569 14.4972 15.3623 14.4078 15.3623 14.2884C15.3623 14.1691 15.4569 14.0796 15.583 14.0796H15.8666C15.9927 14.0796 16.0873 14.1691 16.0873 14.2884C16.0873 14.4078 15.977 14.4972 15.8666 14.4972Z" fill="url(#paint1_radial_128_119)"/>
<path d="M23.6625 14.4972H23.3788C23.2528 14.4972 23.1582 14.4078 23.1582 14.2884C23.1582 14.1691 23.2528 14.0796 23.3788 14.0796H23.6625C23.7886 14.0796 23.8832 14.1691 23.8832 14.2884C23.8832 14.4078 23.7886 14.4972 23.6625 14.4972Z" fill="url(#paint2_radial_128_119)"/>
<path d="M17.122 16.9327L16.9171 17.1265C16.8383 17.2011 16.6965 17.2011 16.6177 17.1265C16.5389 17.0519 16.5389 16.9177 16.6177 16.8431L16.8226 16.6493C16.9014 16.5746 17.0432 16.5746 17.122 16.6493C17.2008 16.7238 17.2166 16.858 17.122 16.9327Z" fill="url(#paint3_radial_128_119)"/>
<path d="M22.6279 11.7221L22.423 11.9161C22.3442 11.9906 22.2024 11.9906 22.1236 11.9161C22.0448 11.8415 22.0448 11.7072 22.1236 11.6327L22.3285 11.4387C22.4073 11.3642 22.5491 11.3642 22.6279 11.4387C22.7067 11.5133 22.7067 11.6476 22.6279 11.7221Z" fill="url(#paint4_radial_128_119)"/>
<path d="M19.8485 17.8381V18.1066C19.8485 18.226 19.754 18.3155 19.6278 18.3155C19.5018 18.3155 19.4072 18.226 19.4072 18.1066V17.8381C19.4072 17.7189 19.5018 17.6294 19.6278 17.6294C19.754 17.6294 19.8485 17.7338 19.8485 17.8381Z" fill="url(#paint5_radial_128_119)"/>
<path d="M19.8485 10.4696V10.7381C19.8485 10.8573 19.754 10.9469 19.6278 10.9469C19.5018 10.9469 19.4072 10.8573 19.4072 10.7381V10.4696C19.4072 10.3502 19.5018 10.2607 19.6278 10.2607C19.754 10.2607 19.8485 10.3502 19.8485 10.4696Z" fill="url(#paint6_radial_128_119)"/>
<path d="M22.423 16.6598L22.6279 16.8537C22.7067 16.9283 22.7067 17.0625 22.6279 17.1371C22.5491 17.2117 22.4073 17.2117 22.3285 17.1371L22.1236 16.9432C22.0448 16.8686 22.0448 16.7344 22.1236 16.6598C22.2024 16.5852 22.3442 16.5703 22.423 16.6598Z" fill="url(#paint7_radial_128_119)"/>
<path d="M16.9171 11.4387L17.122 11.6327C17.2008 11.7072 17.2008 11.8415 17.122 11.9161C17.0432 11.9906 16.9014 11.9906 16.8226 11.9161L16.6177 11.7221C16.5389 11.6476 16.5389 11.5133 16.6177 11.4387C16.6965 11.3642 16.8383 11.3642 16.9171 11.4387Z" fill="url(#paint8_radial_128_119)"/>
<path d="M21.3608 17.4199H14.4268V20.4031H21.3608V17.4199Z" fill="url(#paint9_radial_128_119)"/>
<path fill-rule="evenodd" clip-rule="evenodd" d="M17.1067 19.5085C17.8217 19.5085 18.4904 19.3206 19.0607 18.9942C19.4552 19.8251 20.3371 20.4037 21.3618 20.4037C22.7544 20.4037 23.8833 19.3352 23.8833 18.0171C23.8833 16.699 22.7544 15.6305 21.3618 15.6305C21.1969 15.6305 21.0356 15.6455 20.8795 15.6741C20.7417 13.8158 19.1052 12.3486 17.1067 12.3486C15.5399 12.3486 14.1955 13.2504 13.6215 14.5355C12.2711 14.8726 11.2754 16.0365 11.2754 17.4204C11.2754 19.068 12.6865 20.4036 14.4273 20.4036C15.32 20.4036 16.126 20.0523 16.6994 19.4879C16.8332 19.5015 16.9691 19.5085 17.1067 19.5085Z" fill="url(#paint10_radial_128_119)"/>
<path d="M14.2253 23.2345L14.0992 22.5633C14.0992 22.5335 14.0677 22.5335 14.0519 22.5484L13.5161 22.9809C13.3427 23.1301 13.327 23.3986 13.5003 23.5627C13.6264 23.682 13.8313 23.7118 13.9889 23.6373C14.1622 23.5627 14.241 23.3986 14.2253 23.2345Z" fill="url(#paint11_radial_128_119)"/>
<path d="M15.1706 21.5933L15.0445 20.9221C15.0445 20.8924 15.013 20.8923 14.9972 20.9072L14.4614 21.3398C14.2881 21.4889 14.2723 21.7574 14.4456 21.9215C14.5717 22.0408 14.7766 22.0707 14.9342 21.9961C15.1075 21.9215 15.1863 21.7574 15.1706 21.5933Z" fill="url(#paint12_radial_128_119)"/>
<path d="M19.8893 23.2345L19.7632 22.5633C19.7632 22.5335 19.7317 22.5335 19.716 22.5484L19.1801 22.9809C19.0068 23.1301 18.991 23.3986 19.1644 23.5627C19.2904 23.682 19.4954 23.7118 19.6529 23.6373C19.8263 23.5627 19.9051 23.3986 19.8893 23.2345Z" fill="url(#paint13_radial_128_119)"/>
<path d="M20.8444 21.5933L20.7183 20.9221C20.7183 20.8924 20.6868 20.8923 20.6711 20.9072L20.1352 21.3398C19.9619 21.4889 19.9461 21.7574 20.1195 21.9215C20.2455 22.0408 20.4505 22.0707 20.608 21.9961C20.7814 21.9215 20.8602 21.7574 20.8444 21.5933Z" fill="url(#paint14_radial_128_119)"/>
<path d="M17.083 19.5299C19.1719 19.5299 20.8653 17.9271 20.8653 15.95C20.8653 13.9729 19.1719 12.3701 17.083 12.3701C14.9941 12.3701 13.3008 13.9729 13.3008 15.95C13.3008 17.9271 14.9941 19.5299 17.083 19.5299Z" fill="url(#paint15_radial_128_119)"/>
<path d="M21.3384 17.4419H14.4043V20.4251H21.3384V17.4419Z" fill="url(#paint16_radial_128_119)"/>
<path d="M21.3389 20.4251C22.7315 20.4251 23.8604 19.3566 23.8604 18.0385C23.8604 16.7204 22.7315 15.6519 21.3389 15.6519C19.9463 15.6519 18.8174 16.7204 18.8174 18.0385C18.8174 19.3566 19.9463 20.4251 21.3389 20.4251Z" fill="url(#paint17_radial_128_119)"/>
<path d="M14.4038 20.425C16.1445 20.425 17.5557 19.0893 17.5557 17.4417C17.5557 15.7941 16.1445 14.4585 14.4038 14.4585C12.6631 14.4585 11.252 15.7941 11.252 17.4417C11.252 19.0893 12.6631 20.425 14.4038 20.425Z" fill="url(#paint18_radial_128_119)"/>
<path d="M16.6155 18.6353H18.3963C18.4436 18.6353 18.4751 18.6799 18.4593 18.7247L17.435 20.7235C17.4192 20.7683 17.4508 20.813 17.498 20.813H19.1212C19.1843 20.813 19.2158 20.8727 19.1685 20.9174L16.3791 23.9753C16.3319 24.0348 16.2373 23.9753 16.2688 23.9156L17.0095 21.8423C17.0252 21.7975 16.9937 21.7528 16.9464 21.7528L15.9851 21.7378C15.9379 21.7378 15.9063 21.693 15.9221 21.6632L16.5682 18.6799C16.5682 18.6501 16.584 18.6353 16.6155 18.6353Z" fill="url(#paint19_radial_128_119)"/>
<defs>
<radialGradient id="paint0_radial_128_119" cx="0" cy="0" r="1" gradientUnits="userSpaceOnUse" gradientTransform="translate(19.5695 16.9729) rotate(-90) scale(4.94815 5.23)">
<stop stop-color="#FFA141"/>
<stop offset="0.1746" stop-color="#FFA141"/>
<stop offset="0.3575" stop-color="#FFA63B"/>
<stop offset="0.6011" stop-color="#FFB62A"/>
<stop offset="0.8778" stop-color="#FFD00F"/>
<stop offset="1" stop-color="#FFDD00"/>
</radialGradient>
<radialGradient id="paint1_radial_128_119" cx="0" cy="0" r="1" gradientUnits="userSpaceOnUse" gradientTransform="translate(18.1093 16.8029) rotate(-90) scale(3.58866 6.21999)">
<stop stop-color="#FFA141"/>
<stop offset="0.1746" stop-color="#FFA141"/>
<stop offset="0.3575" stop-color="#FFA63B"/>
<stop offset="0.6011" stop-color="#FFB62A"/>
<stop offset="0.8778" stop-color="#FFD00F"/>
<stop offset="1" stop-color="#FFDD00"/>
</radialGradient>
<radialGradient id="paint2_radial_128_119" cx="0" cy="0" r="1" gradientUnits="userSpaceOnUse" gradientTransform="translate(21.0705 16.8029) rotate(-90) scale(3.32875 5.78)">
<stop stop-color="#FFA141"/>
<stop offset="0.1746" stop-color="#FFA141"/>
<stop offset="0.3575" stop-color="#FFA63B"/>
<stop offset="0.6011" stop-color="#FFB62A"/>
<stop offset="0.8778" stop-color="#FFD00F"/>
<stop offset="1" stop-color="#FFDD00"/>
</radialGradient>
<radialGradient id="paint3_radial_128_119" cx="0" cy="0" r="1" gradientUnits="userSpaceOnUse" gradientTransform="translate(20.44 17.0625) rotate(-136.547) scale(3.69177 3.67756)">
<stop stop-color="#FFA141"/>
<stop offset="0.1746" stop-color="#FFA141"/>
<stop offset="0.3575" stop-color="#FFA63B"/>
<stop offset="0.6011" stop-color="#FFB62A"/>
<stop offset="0.8778" stop-color="#FFD00F"/>
<stop offset="1" stop-color="#FFDD00"/>
</radialGradient>
<radialGradient id="paint4_radial_128_119" cx="0" cy="0" r="1" gradientUnits="userSpaceOnUse" gradientTransform="translate(22.5203 15.1035) rotate(-136.668) scale(3.42322 3.41588)">
<stop stop-color="#FFA141"/>
<stop offset="0.1746" stop-color="#FFA141"/>
<stop offset="0.3575" stop-color="#FFA63B"/>
<stop offset="0.6011" stop-color="#FFB62A"/>
<stop offset="0.8778" stop-color="#FFD00F"/>
<stop offset="1" stop-color="#FFDD00"/>
</radialGradient>
<radialGradient id="paint5_radial_128_119" cx="0" cy="0" r="1" gradientUnits="userSpaceOnUse" gradientTransform="translate(22.29 15.7131) rotate(180) scale(3.78999 5.88779)">
<stop stop-color="#FFA141"/>
<stop offset="0.1746" stop-color="#FFA141"/>
<stop offset="0.3575" stop-color="#FFA63B"/>
<stop offset="0.6011" stop-color="#FFB62A"/>
<stop offset="0.8778" stop-color="#FFD00F"/>
<stop offset="1" stop-color="#FFDD00"/>
</radialGradient>
<radialGradient id="paint6_radial_128_119" cx="0" cy="0" r="1" gradientUnits="userSpaceOnUse" gradientTransform="translate(22.29 12.9243) rotate(180) scale(3.51999 5.46796)">
<stop stop-color="#FFA141"/>
<stop offset="0.1746" stop-color="#FFA141"/>
<stop offset="0.3575" stop-color="#FFA63B"/>
<stop offset="0.6011" stop-color="#FFB62A"/>
<stop offset="0.8778" stop-color="#FFD00F"/>
<stop offset="1" stop-color="#FFDD00"/>
</radialGradient>
<radialGradient id="paint7_radial_128_119" cx="0" cy="0" r="1" gradientUnits="userSpaceOnUse" gradientTransform="translate(22.5603 13.5141) rotate(136.547) scale(3.69177 3.67756)">
<stop stop-color="#FFA141"/>
<stop offset="0.1746" stop-color="#FFA141"/>
<stop offset="0.3575" stop-color="#FFA63B"/>
<stop offset="0.6011" stop-color="#FFB62A"/>
<stop offset="0.8778" stop-color="#FFD00F"/>
<stop offset="1" stop-color="#FFDD00"/>
</radialGradient>
<radialGradient id="paint8_radial_128_119" cx="0" cy="0" r="1" gradientUnits="userSpaceOnUse" gradientTransform="translate(20.49 11.5448) rotate(136.668) scale(3.42322 3.41588)">
<stop stop-color="#FFA141"/>
<stop offset="0.1746" stop-color="#FFA141"/>
<stop offset="0.3575" stop-color="#FFA63B"/>
<stop offset="0.6011" stop-color="#FFB62A"/>
<stop offset="0.8778" stop-color="#FFD00F"/>
<stop offset="1" stop-color="#FFDD00"/>
</radialGradient>
<radialGradient id="paint9_radial_128_119" cx="0" cy="0" r="1" gradientUnits="userSpaceOnUse" gradientTransform="translate(17.96 20.4113) rotate(-0.131438) scale(17.43 7.49722)">
<stop stop-color="#E6E7E8"/>
<stop offset="0.4218" stop-color="#E6E7E8"/>
<stop offset="1" stop-color="white"/>
</radialGradient>
<radialGradient id="paint10_radial_128_119" cx="0" cy="0" r="1" gradientUnits="userSpaceOnUse" gradientTransform="translate(14.4905 20.4214) scale(9.26 8.76672)">
<stop stop-color="#E6E7E8"/>
<stop offset="0.4218" stop-color="#E6E7E8"/>
<stop offset="1" stop-color="white"/>
</radialGradient>
<radialGradient id="paint11_radial_128_119" cx="0" cy="0" r="1" gradientUnits="userSpaceOnUse" gradientTransform="translate(13.66 23.67) rotate(19.1535) scale(1.24915 1.59649)">
<stop stop-color="#26A9E0"/>
<stop offset="0.2835" stop-color="#26A9E0"/>
<stop offset="1" stop-color="#B3FDFF"/>
</radialGradient>
<radialGradient id="paint12_radial_128_119" cx="0" cy="0" r="1" gradientUnits="userSpaceOnUse" gradientTransform="translate(14.61 22.0305) rotate(19.1535) scale(1.24915 1.59649)">
<stop stop-color="#26A9E0"/>
<stop offset="0.2835" stop-color="#26A9E0"/>
<stop offset="1" stop-color="#B3FDFF"/>
</radialGradient>
<radialGradient id="paint13_radial_128_119" cx="0" cy="0" r="1" gradientUnits="userSpaceOnUse" gradientTransform="translate(19.3207 23.67) rotate(19.1535) scale(1.24915 1.59649)">
<stop stop-color="#26A9E0"/>
<stop offset="0.2835" stop-color="#26A9E0"/>
<stop offset="1" stop-color="#B3FDFF"/>
</radialGradient>
<radialGradient id="paint14_radial_128_119" cx="0" cy="0" r="1" gradientUnits="userSpaceOnUse" gradientTransform="translate(20.28 22.0305) rotate(19.1535) scale(1.24915 1.59649)">
<stop stop-color="#26A9E0"/>
<stop offset="0.2835" stop-color="#26A9E0"/>
<stop offset="1" stop-color="#B3FDFF"/>
</radialGradient>
<radialGradient id="paint15_radial_128_119" cx="0" cy="0" r="1" gradientUnits="userSpaceOnUse" gradientTransform="translate(17.16 19.5517) scale(11.11 10.5161)">
<stop stop-color="#E6E7E8"/>
<stop offset="0.4218" stop-color="#E6E7E8"/>
<stop offset="1" stop-color="white"/>
</radialGradient>
<radialGradient id="paint16_radial_128_119" cx="0" cy="0" r="1" gradientUnits="userSpaceOnUse" gradientTransform="translate(17.94 20.4313) rotate(-0.131438) scale(17.43 7.49722)">
<stop stop-color="#E6E7E8"/>
<stop offset="0.4218" stop-color="#E6E7E8"/>
<stop offset="1" stop-color="white"/>
</radialGradient>
<radialGradient id="paint17_radial_128_119" cx="0" cy="0" r="1" gradientUnits="userSpaceOnUse" gradientTransform="translate(21.3905 20.4412) scale(7.41 7.00738)">
<stop stop-color="#E6E7E8"/>
<stop offset="0.4218" stop-color="#E6E7E8"/>
<stop offset="1" stop-color="white"/>
</radialGradient>
<radialGradient id="paint18_radial_128_119" cx="0" cy="0" r="1" gradientUnits="userSpaceOnUse" gradientTransform="translate(14.46 20.4412) scale(9.26 8.76672)">
<stop stop-color="#E6E7E8"/>
<stop offset="0.4218" stop-color="#E6E7E8"/>
<stop offset="1" stop-color="white"/>
</radialGradient>
<radialGradient id="paint19_radial_128_119" cx="0" cy="0" r="1" gradientUnits="userSpaceOnUse" gradientTransform="translate(17.0293 24.0499) rotate(-90) scale(5.40797 9.89)">
<stop stop-color="#FFA141"/>
<stop offset="0.1746" stop-color="#FFA141"/>
<stop offset="0.3575" stop-color="#FFA63B"/>
<stop offset="0.6011" stop-color="#FFB62A"/>
<stop offset="0.8778" stop-color="#FFD00F"/>
<stop offset="1" stop-color="#FFDD00"/>
</radialGradient>
</defs>
</svg>
