<?xml version="1.0" standalone="no"?>
<!DOCTYPE svg PUBLIC "-//W3C//DTD SVG 20010904//EN"
 "http://www.w3.org/TR/2001/REC-SVG-20010904/DTD/svg10.dtd">
<svg version="1.0" xmlns="http://www.w3.org/2000/svg"
 width="512.000000pt" height="512.000000pt" viewBox="0 0 512.000000 512.000000"
 preserveAspectRatio="xMidYMid meet">

<g transform="translate(0.000000,512.000000) scale(0.100000,-0.100000)"
fill="#000000" stroke="none">
<path d="M2351 4949 c-422 -47 -809 -221 -1122 -505 -605 -547 -819 -1383
-558 -2178 230 -700 837 -1417 1688 -1995 135 -91 171 -111 201 -111 30 0 65
20 198 109 372 251 710 542 988 849 435 480 694 967 785 1477 20 111 23 162
23 350 -1 196 -4 235 -28 360 -80 415 -271 778 -562 1069 -301 302 -670 491
-1094 561 -116 19 -405 27 -519 14z m364 -199 c413 -39 783 -211 1084 -504
330 -322 512 -710 553 -1177 20 -238 -13 -484 -102 -751 -216 -649 -791 -1327
-1584 -1867 l-106 -72 -91 61 c-145 98 -363 265 -512 393 -827 709 -1257 1524
-1188 2252 44 459 228 846 552 1161 251 243 528 394 860 468 192 43 349 53
534 36z"/>
<path d="M2340 4346 c-591 -106 -1032 -531 -1157 -1116 -25 -120 -25 -420 0
-540 125 -584 579 -1021 1162 -1115 267 -44 562 0 811 119 305 146 524 365
670 670 147 308 175 657 79 991 -30 105 -115 286 -176 376 -209 311 -520 523
-889 604 -102 23 -398 29 -500 11z m480 -215 c352 -80 651 -315 814 -639 84
-168 121 -329 121 -532 0 -157 -12 -236 -56 -372 -58 -179 -154 -335 -293
-474 -171 -170 -371 -280 -606 -330 -106 -23 -352 -26 -455 -5 -494 98 -868
472 -966 966 -21 103 -18 349 5 455 51 235 161 437 330 606 179 178 404 296
636 334 41 6 82 13 90 15 42 11 302 -6 380 -24z"/>
<path d="M2603 3745 c-71 -19 -122 -46 -188 -100 -55 -45 -55 -45 -102 -34
-141 31 -308 -56 -374 -196 -16 -33 -29 -67 -29 -76 0 -9 -22 -24 -55 -38 -79
-33 -157 -108 -197 -189 -31 -62 -33 -74 -33 -167 0 -87 3 -107 26 -156 49
-104 140 -182 250 -214 50 -14 128 -15 660 -13 l604 3 66 31 c91 43 142 93
184 178 60 120 57 260 -6 363 -13 21 -21 54 -23 100 -3 82 -32 152 -84 206
-44 46 -104 82 -151 92 -24 5 -55 29 -105 79 -126 127 -283 174 -443 131z
m182 -196 c64 -18 122 -65 157 -126 35 -61 70 -83 136 -83 46 0 84 -26 102
-69 9 -24 10 -41 0 -80 -13 -55 -11 -61 45 -141 25 -37 30 -53 30 -105 0 -71
-24 -115 -83 -156 l-36 -24 -596 0 -596 0 -42 28 c-128 84 -99 289 47 326 20
5 54 13 75 18 53 11 77 46 80 115 3 72 30 117 86 146 79 40 158 9 204 -81 41
-83 112 -103 167 -48 43 43 39 106 -13 182 -17 25 -17 27 5 46 61 56 147 75
232 52z"/>
</g>
</svg>
