<svg width="24" height="24" viewBox="0 0 24 24" fill="none" xmlns="http://www.w3.org/2000/svg">
<ellipse cx="11.1004" cy="7.91226" rx="7.2" ry="7.91226" fill="url(#paint0_radial_21_43)"/>
<rect x="6" y="11.209" width="13.2" height="6.59355" fill="url(#paint1_radial_21_43)"/>
<ellipse cx="19.2004" cy="12.5278" rx="4.8" ry="5.27484" fill="url(#paint2_radial_21_43)"/>
<ellipse cx="6" cy="11.2093" rx="6" ry="6.59355" fill="url(#paint3_radial_21_43)"/>
<path fill-rule="evenodd" clip-rule="evenodd" d="M12.7563 14.5059C13.1039 14.6641 13.1026 14.6953 13.0886 15.0505C13.0852 15.1378 13.081 15.2445 13.081 15.3775V16.3235L13.4768 16.0032C14.1092 15.4916 14.1567 15.5941 14.2706 15.8706C14.3959 16.1747 14.2918 16.7447 13.9097 17.0539L13.4257 17.4455L14.1269 18.0128C14.1965 18.0691 14.2584 18.1147 14.3135 18.1553C14.561 18.3374 14.6695 18.4172 14.7041 18.9035C14.3659 19.3303 14.1108 19.4007 13.694 19.0634L13.081 18.5675V19.397C13.081 20.4203 12.9842 20.5719 12.7563 20.5719C12.5057 20.5719 12.2153 20.0154 12.2153 19.397V18.4248L11.4258 19.0636C11.1035 19.3244 10.9307 19.2064 10.6512 19.0155C10.5994 18.9801 10.5439 18.9421 10.483 18.9036C10.4095 18.4187 10.5065 18.3533 10.7492 18.1898C10.8187 18.1429 10.9001 18.0881 10.9929 18.013L11.6943 17.4455L11.2101 17.0537C10.5778 16.542 10.5864 16.4503 10.7003 16.1739C10.8256 15.8697 11.2608 15.6938 11.643 16.003L12.2153 16.4661V15.3775C12.2153 14.9317 12.3165 14.8569 12.5027 14.7193C12.5748 14.666 12.6597 14.6032 12.7563 14.5059Z" fill="url(#paint4_radial_21_43)"/>
<path fill-rule="evenodd" clip-rule="evenodd" d="M12.7563 14.5059C13.1039 14.6641 13.1026 14.6953 13.0886 15.0505C13.0852 15.1378 13.081 15.2445 13.081 15.3775V16.3235L13.4768 16.0032C14.1092 15.4916 14.1567 15.5941 14.2706 15.8706C14.3959 16.1747 14.2918 16.7447 13.9097 17.0539L13.4257 17.4455L14.1269 18.0128C14.1965 18.0691 14.2584 18.1147 14.3135 18.1553C14.561 18.3374 14.6695 18.4172 14.7041 18.9035C14.3659 19.3303 14.1108 19.4007 13.694 19.0634L13.081 18.5675V19.397C13.081 20.4203 12.9842 20.5719 12.7563 20.5719C12.5057 20.5719 12.2153 20.0154 12.2153 19.397V18.4248L11.4258 19.0636C11.1035 19.3244 10.9307 19.2064 10.6512 19.0155C10.5994 18.9801 10.5439 18.9421 10.483 18.9036C10.4095 18.4187 10.5065 18.3533 10.7492 18.1898C10.8187 18.1429 10.9001 18.0881 10.9929 18.013L11.6943 17.4455L11.2101 17.0537C10.5778 16.542 10.5864 16.4503 10.7003 16.1739C10.8256 15.8697 11.2608 15.6938 11.643 16.003L12.2153 16.4661V15.3775C12.2153 14.9317 12.3165 14.8569 12.5027 14.7193C12.5748 14.666 12.6597 14.6032 12.7563 14.5059Z" fill="url(#paint5_radial_21_43)"/>
<path fill-rule="evenodd" clip-rule="evenodd" d="M7.09716 17.9341C7.44468 18.0923 7.44346 18.1235 7.42947 18.4788C7.42603 18.566 7.42183 18.6727 7.42183 18.8057V19.7517L7.81765 19.4314C8.45 18.9198 8.49753 19.0223 8.61144 19.2988C8.73674 19.603 8.63264 20.1729 8.2505 20.4821L7.76654 20.8737L8.46767 21.441C8.53727 21.4973 8.59927 21.5429 8.65437 21.5835C8.90179 21.7656 9.01028 21.8454 9.04494 22.3318C8.70671 22.7585 8.45165 22.8289 8.03482 22.4917L7.42183 21.9957V22.8252C7.42183 23.8485 7.32498 24.0001 7.09716 24.0001C6.84657 24.0001 6.55613 23.4436 6.55613 22.8252V21.853L5.76661 22.4919C5.44428 22.7527 5.27149 22.6346 4.99206 22.4437C4.9402 22.4083 4.88468 22.3704 4.82384 22.3319C4.75029 21.8469 4.84735 21.7815 5.09 21.618C5.15951 21.5712 5.24095 21.5163 5.33376 21.4412L6.03515 20.8737L5.55093 20.4819C4.91859 19.9703 4.92723 19.8786 5.04114 19.6021C5.16644 19.2979 5.60164 19.122 5.98378 19.4312L6.55613 19.8943V18.8057C6.55613 18.36 6.65732 18.2852 6.84351 18.1475C6.91562 18.0942 7.00049 18.0315 7.09716 17.9341Z" fill="url(#paint6_radial_21_43)"/>
<path fill-rule="evenodd" clip-rule="evenodd" d="M7.09716 17.9341C7.44468 18.0923 7.44346 18.1235 7.42947 18.4788C7.42603 18.566 7.42183 18.6727 7.42183 18.8057V19.7517L7.81765 19.4314C8.45 18.9198 8.49753 19.0223 8.61144 19.2988C8.73674 19.603 8.63264 20.1729 8.2505 20.4821L7.76654 20.8737L8.46767 21.441C8.53727 21.4973 8.59927 21.5429 8.65437 21.5835C8.90179 21.7656 9.01028 21.8454 9.04494 22.3318C8.70671 22.7585 8.45165 22.8289 8.03482 22.4917L7.42183 21.9957V22.8252C7.42183 23.8485 7.32498 24.0001 7.09716 24.0001C6.84657 24.0001 6.55613 23.4436 6.55613 22.8252V21.853L5.76661 22.4919C5.44428 22.7527 5.27149 22.6346 4.99206 22.4437C4.9402 22.4083 4.88468 22.3704 4.82384 22.3319C4.75029 21.8469 4.84735 21.7815 5.09 21.618C5.15951 21.5712 5.24095 21.5163 5.33376 21.4412L6.03515 20.8737L5.55093 20.4819C4.91859 19.9703 4.92723 19.8786 5.04114 19.6021C5.16644 19.2979 5.60164 19.122 5.98378 19.4312L6.55613 19.8943V18.8057C6.55613 18.36 6.65732 18.2852 6.84351 18.1475C6.91562 18.0942 7.00049 18.0315 7.09716 17.9341Z" fill="url(#paint7_radial_21_43)"/>
<path fill-rule="evenodd" clip-rule="evenodd" d="M19.2251 17.9341C19.5726 18.0923 19.5714 18.1235 19.5574 18.4788C19.554 18.566 19.5498 18.6727 19.5498 18.8057V19.7517L19.9456 19.4314C20.5779 18.9198 20.6255 19.0223 20.7394 19.2988C20.8647 19.603 20.7606 20.1729 20.3784 20.4821L19.8945 20.8737L20.5956 21.441C20.6652 21.4973 20.7272 21.5429 20.7823 21.5835C21.0297 21.7656 21.1382 21.8454 21.1729 22.3318C20.8346 22.7585 20.5796 22.8289 20.1628 22.4917L19.5498 21.9957V22.8252C19.5498 23.8485 19.4529 24.0001 19.2251 24.0001C18.9745 24.0001 18.6841 23.4436 18.6841 22.8252V21.853L17.8945 22.4919C17.5722 22.7527 17.3994 22.6346 17.12 22.4437C17.0681 22.4083 17.0126 22.3704 16.9518 22.3319C16.8782 21.8469 16.9753 21.7815 17.2179 21.618C17.2874 21.5712 17.3689 21.5163 17.4617 21.4412L18.1631 20.8737L17.6789 20.4819C17.0465 19.9703 17.0552 19.8786 17.1691 19.6021C17.2944 19.2979 17.7296 19.122 18.1117 19.4312L18.6841 19.8943V18.8057C18.6841 18.36 18.7853 18.2852 18.9714 18.1475C19.0436 18.0942 19.1284 18.0315 19.2251 17.9341Z" fill="url(#paint8_radial_21_43)"/>
<path fill-rule="evenodd" clip-rule="evenodd" d="M19.2251 17.9341C19.5726 18.0923 19.5714 18.1235 19.5574 18.4788C19.554 18.566 19.5498 18.6727 19.5498 18.8057V19.7517L19.9456 19.4314C20.5779 18.9198 20.6255 19.0223 20.7394 19.2988C20.8647 19.603 20.7606 20.1729 20.3784 20.4821L19.8945 20.8737L20.5956 21.441C20.6652 21.4973 20.7272 21.5429 20.7823 21.5835C21.0297 21.7656 21.1382 21.8454 21.1729 22.3318C20.8346 22.7585 20.5796 22.8289 20.1628 22.4917L19.5498 21.9957V22.8252C19.5498 23.8485 19.4529 24.0001 19.2251 24.0001C18.9745 24.0001 18.6841 23.4436 18.6841 22.8252V21.853L17.8945 22.4919C17.5722 22.7527 17.3994 22.6346 17.12 22.4437C17.0681 22.4083 17.0126 22.3704 16.9518 22.3319C16.8782 21.8469 16.9753 21.7815 17.2179 21.618C17.2874 21.5712 17.3689 21.5163 17.4617 21.4412L18.1631 20.8737L17.6789 20.4819C17.0465 19.9703 17.0552 19.8786 17.1691 19.6021C17.2944 19.2979 17.7296 19.122 18.1117 19.4312L18.6841 19.8943V18.8057C18.6841 18.36 18.7853 18.2852 18.9714 18.1475C19.0436 18.0942 19.1284 18.0315 19.2251 17.9341Z" fill="url(#paint9_radial_21_43)"/>
<defs>
<radialGradient id="paint0_radial_21_43" cx="0" cy="0" r="1" gradientUnits="userSpaceOnUse" gradientTransform="translate(11.2378 15.8781) scale(21.1489 23.2411)">
<stop stop-color="#E6E7E8"/>
<stop offset="0.4218" stop-color="#E6E7E8"/>
<stop offset="1" stop-color="white"/>
</radialGradient>
<radialGradient id="paint1_radial_21_43" cx="0" cy="0" r="1" gradientUnits="userSpaceOnUse" gradientTransform="translate(12.7257 17.8245) rotate(-90) scale(22.1104 9.14545)">
<stop stop-color="#E6E7E8"/>
<stop offset="0.4218" stop-color="#E6E7E8"/>
<stop offset="1" stop-color="white"/>
</radialGradient>
<radialGradient id="paint2_radial_21_43" cx="0" cy="0" r="1" gradientUnits="userSpaceOnUse" gradientTransform="translate(19.292 17.8383) scale(14.0993 15.494)">
<stop stop-color="#E6E7E8"/>
<stop offset="0.4218" stop-color="#E6E7E8"/>
<stop offset="1" stop-color="white"/>
</radialGradient>
<radialGradient id="paint3_radial_21_43" cx="0" cy="0" r="1" gradientUnits="userSpaceOnUse" gradientTransform="translate(6.11454 17.8475) scale(17.6241 19.3676)">
<stop stop-color="#E6E7E8"/>
<stop offset="0.4218" stop-color="#E6E7E8"/>
<stop offset="1" stop-color="white"/>
</radialGradient>
<radialGradient id="paint4_radial_21_43" cx="0" cy="0" r="1" gradientUnits="userSpaceOnUse" gradientTransform="translate(-9.76831 35.6179) rotate(67.6052) scale(12.9373 55.2531)">
<stop stop-color="#FFA141"/>
<stop offset="0.1746" stop-color="#FFA141"/>
<stop offset="0.3575" stop-color="#FFA63B"/>
<stop offset="0.6011" stop-color="#FFB62A"/>
<stop offset="0.8778" stop-color="#FFD00F"/>
<stop offset="1" stop-color="#FFDD00"/>
</radialGradient>
<radialGradient id="paint5_radial_21_43" cx="0" cy="0" r="1" gradientUnits="userSpaceOnUse" gradientTransform="translate(10.3897 18.8243) rotate(-29.3285) scale(3.53787 1.27776)">
<stop offset="0.06" stop-color="#26A9E0"/>
<stop offset="0.47" stop-color="#B3FDFF"/>
<stop offset="1" stop-color="#26A9E0"/>
</radialGradient>
<radialGradient id="paint6_radial_21_43" cx="0" cy="0" r="1" gradientUnits="userSpaceOnUse" gradientTransform="translate(-15.4275 39.0461) rotate(67.6052) scale(12.9373 55.2531)">
<stop stop-color="#FFA141"/>
<stop offset="0.1746" stop-color="#FFA141"/>
<stop offset="0.3575" stop-color="#FFA63B"/>
<stop offset="0.6011" stop-color="#FFB62A"/>
<stop offset="0.8778" stop-color="#FFD00F"/>
<stop offset="1" stop-color="#FFDD00"/>
</radialGradient>
<radialGradient id="paint7_radial_21_43" cx="0" cy="0" r="1" gradientUnits="userSpaceOnUse" gradientTransform="translate(4.7305 22.2525) rotate(-29.3285) scale(3.53787 1.27776)">
<stop offset="0.06" stop-color="#26A9E0"/>
<stop offset="0.47" stop-color="#B3FDFF"/>
<stop offset="1" stop-color="#26A9E0"/>
</radialGradient>
<radialGradient id="paint8_radial_21_43" cx="0" cy="0" r="1" gradientUnits="userSpaceOnUse" gradientTransform="translate(-3.29956 39.0461) rotate(67.6052) scale(12.9373 55.2531)">
<stop stop-color="#FFA141"/>
<stop offset="0.1746" stop-color="#FFA141"/>
<stop offset="0.3575" stop-color="#FFA63B"/>
<stop offset="0.6011" stop-color="#FFB62A"/>
<stop offset="0.8778" stop-color="#FFD00F"/>
<stop offset="1" stop-color="#FFDD00"/>
</radialGradient>
<radialGradient id="paint9_radial_21_43" cx="0" cy="0" r="1" gradientUnits="userSpaceOnUse" gradientTransform="translate(16.8584 22.2525) rotate(-29.3285) scale(3.53787 1.27776)">
<stop offset="0.06" stop-color="#26A9E0"/>
<stop offset="0.47" stop-color="#B3FDFF"/>
<stop offset="1" stop-color="#26A9E0"/>
</radialGradient>
</defs>
</svg>
