<svg width="20" height="19" viewBox="0 0 20 19" fill="none" xmlns="http://www.w3.org/2000/svg">
<circle cx="9.25" cy="6" r="6" fill="url(#paint0_radial_21_43)"/>
<rect x="5" y="8.5" width="11" height="5" fill="url(#paint1_radial_21_43)"/>
<circle cx="16" cy="9.5" r="4" fill="url(#paint2_radial_21_43)"/>
<circle cx="5" cy="8.5" r="5" fill="url(#paint3_radial_21_43)"/>
<path fill-rule="evenodd" clip-rule="evenodd" d="M10.63 11C10.9196 11.12 10.9185 11.1437 10.9069 11.413V11.4131C10.904 11.4792 10.9005 11.5601 10.9005 11.661V12.3787L11.2307 12.1356C11.7576 11.7476 11.7973 11.8253 11.8922 12.035C11.9966 12.2656 11.9098 12.6978 11.5914 12.9323L11.1879 13.2294L11.7721 13.6595C11.8301 13.7022 11.8817 13.7368 11.9276 13.7676C12.1338 13.9057 12.2242 13.9662 12.2531 14.335C11.9712 14.6587 11.7587 14.712 11.4113 14.4563L10.9005 14.0802V14.709C10.9005 15.485 10.8198 15.6 10.63 15.6C10.4211 15.6 10.1791 15.178 10.1791 14.709V13.9722L9.52149 14.4563C9.25289 14.6541 9.10889 14.5646 8.87603 14.4198C8.83282 14.393 8.78655 14.3642 8.73585 14.335C8.67456 13.9672 8.75544 13.9177 8.95765 13.7937C9.01557 13.7582 9.08344 13.7165 9.16078 13.6596L9.74504 13.2294L9.34143 12.9323C8.81448 12.5443 8.82168 12.4747 8.9166 12.2651C9.02102 12.0344 9.38369 11.901 9.70214 12.1355L10.1791 12.4867V11.661C10.1791 11.323 10.2634 11.2662 10.4186 11.1618C10.4787 11.1214 10.5494 11.0738 10.63 11Z" fill="url(#paint4_radial_21_43)"/>
<path fill-rule="evenodd" clip-rule="evenodd" d="M10.63 11C10.9196 11.12 10.9185 11.1437 10.9069 11.413V11.4131C10.904 11.4792 10.9005 11.5601 10.9005 11.661V12.3787L11.2307 12.1356C11.7576 11.7476 11.7973 11.8253 11.8922 12.035C11.9966 12.2656 11.9098 12.6978 11.5914 12.9323L11.1879 13.2294L11.7721 13.6595C11.8301 13.7022 11.8817 13.7368 11.9276 13.7676C12.1338 13.9057 12.2242 13.9662 12.2531 14.335C11.9712 14.6587 11.7587 14.712 11.4113 14.4563L10.9005 14.0802V14.709C10.9005 15.485 10.8198 15.6 10.63 15.6C10.4211 15.6 10.1791 15.178 10.1791 14.709V13.9722L9.52149 14.4563C9.25289 14.6541 9.10889 14.5646 8.87603 14.4198C8.83282 14.393 8.78655 14.3642 8.73585 14.335C8.67456 13.9672 8.75544 13.9177 8.95765 13.7937C9.01557 13.7582 9.08344 13.7165 9.16078 13.6596L9.74504 13.2294L9.34143 12.9323C8.81448 12.5443 8.82168 12.4747 8.9166 12.2651C9.02102 12.0344 9.38369 11.901 9.70214 12.1355L10.1791 12.4867V11.661C10.1791 11.323 10.2634 11.2662 10.4186 11.1618C10.4787 11.1214 10.5494 11.0738 10.63 11Z" fill="url(#paint5_radial_21_43)"/>
<path fill-rule="evenodd" clip-rule="evenodd" d="M5.91414 13.5996C6.20374 13.7196 6.20272 13.7433 6.19106 14.0127V14.0127C6.1882 14.0788 6.1847 14.1598 6.1847 14.2606V14.9783L6.51487 14.7352C7.04183 14.3472 7.08144 14.4249 7.17636 14.6346C7.28078 14.8652 7.19403 15.2975 6.87558 15.5319L6.47205 15.829L7.05623 16.2591C7.11423 16.3019 7.16589 16.3364 7.21181 16.3672C7.418 16.5053 7.5084 16.5658 7.53729 16.9346C7.25543 17.2583 7.04288 17.3116 6.69552 17.0559L6.1847 16.6798V17.3086C6.1847 18.0846 6.10399 18.1996 5.91414 18.1996C5.70531 18.1996 5.46328 17.7776 5.46328 17.3086V16.5718L4.80567 17.0559C4.53707 17.2537 4.39307 17.1642 4.16021 17.0194C4.117 16.9926 4.07073 16.9638 4.02003 16.9346C3.95874 16.5669 4.03962 16.5173 4.24183 16.3933C4.29975 16.3578 4.36762 16.3161 4.44496 16.2592L5.02922 15.829L4.62561 15.5319C4.09866 15.1439 4.10586 15.0743 4.20078 14.8647C4.3052 14.634 4.66787 14.5007 4.98632 14.7351L5.46328 15.0863V14.2606C5.46328 13.9226 5.54761 13.8658 5.70276 13.7615C5.76286 13.721 5.83358 13.6734 5.91414 13.5996Z" fill="url(#paint6_radial_21_43)"/>
<path fill-rule="evenodd" clip-rule="evenodd" d="M5.91414 13.5996C6.20374 13.7196 6.20272 13.7433 6.19106 14.0127V14.0127C6.1882 14.0788 6.1847 14.1598 6.1847 14.2606V14.9783L6.51487 14.7352C7.04183 14.3472 7.08144 14.4249 7.17636 14.6346C7.28078 14.8652 7.19403 15.2975 6.87558 15.5319L6.47205 15.829L7.05623 16.2591C7.11423 16.3019 7.16589 16.3364 7.21181 16.3672C7.418 16.5053 7.5084 16.5658 7.53729 16.9346C7.25543 17.2583 7.04288 17.3116 6.69552 17.0559L6.1847 16.6798V17.3086C6.1847 18.0846 6.10399 18.1996 5.91414 18.1996C5.70531 18.1996 5.46328 17.7776 5.46328 17.3086V16.5718L4.80567 17.0559C4.53707 17.2537 4.39307 17.1642 4.16021 17.0194C4.117 16.9926 4.07073 16.9638 4.02003 16.9346C3.95874 16.5669 4.03962 16.5173 4.24183 16.3933C4.29975 16.3578 4.36762 16.3161 4.44496 16.2592L5.02922 15.829L4.62561 15.5319C4.09866 15.1439 4.10586 15.0743 4.20078 14.8647C4.3052 14.634 4.66787 14.5007 4.98632 14.7351L5.46328 15.0863V14.2606C5.46328 13.9226 5.54761 13.8658 5.70276 13.7615C5.76286 13.721 5.83358 13.6734 5.91414 13.5996Z" fill="url(#paint7_radial_21_43)"/>
<path fill-rule="evenodd" clip-rule="evenodd" d="M16.0206 13.5996C16.3102 13.7196 16.3092 13.7433 16.2975 14.0127V14.0127C16.2946 14.0788 16.2911 14.1598 16.2911 14.2606V14.9783L16.6213 14.7352C17.1483 14.3472 17.1879 14.4249 17.2828 14.6346C17.3872 14.8652 17.3005 15.2975 16.982 15.5319L16.5785 15.829L17.1627 16.2591C17.2207 16.3019 17.2723 16.3364 17.3183 16.3672C17.5244 16.5053 17.6148 16.5658 17.6437 16.9346C17.3619 17.2583 17.1493 17.3116 16.802 17.0559L16.2911 16.6798V17.3086C16.2911 18.0846 16.2104 18.1996 16.0206 18.1996C15.8118 18.1996 15.5697 17.7776 15.5697 17.3086V16.5718L14.9121 17.0559C14.6435 17.2537 14.4995 17.1642 14.2667 17.0194C14.2234 16.9926 14.1772 16.9638 14.1265 16.9346C14.0652 16.5669 14.1461 16.5173 14.3483 16.3933C14.4062 16.3578 14.4741 16.3161 14.5514 16.2592L15.1357 15.829L14.7321 15.5319C14.2051 15.1439 14.2123 15.0743 14.3072 14.8647C14.4116 14.634 14.7743 14.5007 15.0928 14.7351L15.5697 15.0863V14.2606C15.5697 13.9226 15.6541 13.8658 15.8092 13.7615C15.8693 13.721 15.94 13.6734 16.0206 13.5996Z" fill="url(#paint8_radial_21_43)"/>
<path fill-rule="evenodd" clip-rule="evenodd" d="M16.0206 13.5996C16.3102 13.7196 16.3092 13.7433 16.2975 14.0127V14.0127C16.2946 14.0788 16.2911 14.1598 16.2911 14.2606V14.9783L16.6213 14.7352C17.1483 14.3472 17.1879 14.4249 17.2828 14.6346C17.3872 14.8652 17.3005 15.2975 16.982 15.5319L16.5785 15.829L17.1627 16.2591C17.2207 16.3019 17.2723 16.3364 17.3183 16.3672C17.5244 16.5053 17.6148 16.5658 17.6437 16.9346C17.3619 17.2583 17.1493 17.3116 16.802 17.0559L16.2911 16.6798V17.3086C16.2911 18.0846 16.2104 18.1996 16.0206 18.1996C15.8118 18.1996 15.5697 17.7776 15.5697 17.3086V16.5718L14.9121 17.0559C14.6435 17.2537 14.4995 17.1642 14.2667 17.0194C14.2234 16.9926 14.1772 16.9638 14.1265 16.9346C14.0652 16.5669 14.1461 16.5173 14.3483 16.3933C14.4062 16.3578 14.4741 16.3161 14.5514 16.2592L15.1357 15.829L14.7321 15.5319C14.2051 15.1439 14.2123 15.0743 14.3072 14.8647C14.4116 14.634 14.7743 14.5007 15.0928 14.7351L15.5697 15.0863V14.2606C15.5697 13.9226 15.6541 13.8658 15.8092 13.7615C15.8693 13.721 15.94 13.6734 16.0206 13.5996Z" fill="url(#paint9_radial_21_43)"/>
<defs>
<radialGradient id="paint0_radial_21_43" cx="0" cy="0" r="1" gradientUnits="userSpaceOnUse" gradientTransform="translate(9.36452 12.0406) scale(17.6241)">
<stop stop-color="#E6E7E8"/>
<stop offset="0.4218" stop-color="#E6E7E8"/>
<stop offset="1" stop-color="white"/>
</radialGradient>
<radialGradient id="paint1_radial_21_43" cx="0" cy="0" r="1" gradientUnits="userSpaceOnUse" gradientTransform="translate(10.6048 13.5167) rotate(-90) scale(16.7667 7.62121)">
<stop stop-color="#E6E7E8"/>
<stop offset="0.4218" stop-color="#E6E7E8"/>
<stop offset="1" stop-color="white"/>
</radialGradient>
<radialGradient id="paint2_radial_21_43" cx="0" cy="0" r="1" gradientUnits="userSpaceOnUse" gradientTransform="translate(16.0763 13.5271) scale(11.7494)">
<stop stop-color="#E6E7E8"/>
<stop offset="0.4218" stop-color="#E6E7E8"/>
<stop offset="1" stop-color="white"/>
</radialGradient>
<radialGradient id="paint3_radial_21_43" cx="0" cy="0" r="1" gradientUnits="userSpaceOnUse" gradientTransform="translate(5.09545 13.5338) scale(14.6867)">
<stop stop-color="#E6E7E8"/>
<stop offset="0.4218" stop-color="#E6E7E8"/>
<stop offset="1" stop-color="white"/>
</radialGradient>
<radialGradient id="paint4_radial_21_43" cx="0" cy="0" r="1" gradientUnits="userSpaceOnUse" gradientTransform="translate(-8.13871 27.0096) rotate(65.6397) scale(9.95718 45.3623)">
<stop stop-color="#FFA141"/>
<stop offset="0.1746" stop-color="#FFA141"/>
<stop offset="0.3575" stop-color="#FFA63B"/>
<stop offset="0.6011" stop-color="#FFB62A"/>
<stop offset="0.8778" stop-color="#FFD00F"/>
<stop offset="1" stop-color="#FFDD00"/>
</radialGradient>
<radialGradient id="paint5_radial_21_43" cx="0" cy="0" r="1" gradientUnits="userSpaceOnUse" gradientTransform="translate(8.65808 14.2747) rotate(-27.0807) scale(2.88656 0.98955)">
<stop offset="0.06" stop-color="#26A9E0"/>
<stop offset="0.47" stop-color="#B3FDFF"/>
<stop offset="1" stop-color="#26A9E0"/>
</radialGradient>
<radialGradient id="paint6_radial_21_43" cx="0" cy="0" r="1" gradientUnits="userSpaceOnUse" gradientTransform="translate(-12.8545 29.6092) rotate(65.6397) scale(9.95718 45.3623)">
<stop stop-color="#FFA141"/>
<stop offset="0.1746" stop-color="#FFA141"/>
<stop offset="0.3575" stop-color="#FFA63B"/>
<stop offset="0.6011" stop-color="#FFB62A"/>
<stop offset="0.8778" stop-color="#FFD00F"/>
<stop offset="1" stop-color="#FFDD00"/>
</radialGradient>
<radialGradient id="paint7_radial_21_43" cx="0" cy="0" r="1" gradientUnits="userSpaceOnUse" gradientTransform="translate(3.94225 16.8744) rotate(-27.0807) scale(2.88656 0.98955)">
<stop offset="0.06" stop-color="#26A9E0"/>
<stop offset="0.47" stop-color="#B3FDFF"/>
<stop offset="1" stop-color="#26A9E0"/>
</radialGradient>
<radialGradient id="paint8_radial_21_43" cx="0" cy="0" r="1" gradientUnits="userSpaceOnUse" gradientTransform="translate(-2.74808 29.6092) rotate(65.6397) scale(9.95718 45.3623)">
<stop stop-color="#FFA141"/>
<stop offset="0.1746" stop-color="#FFA141"/>
<stop offset="0.3575" stop-color="#FFA63B"/>
<stop offset="0.6011" stop-color="#FFB62A"/>
<stop offset="0.8778" stop-color="#FFD00F"/>
<stop offset="1" stop-color="#FFDD00"/>
</radialGradient>
<radialGradient id="paint9_radial_21_43" cx="0" cy="0" r="1" gradientUnits="userSpaceOnUse" gradientTransform="translate(14.0487 16.8744) rotate(-27.0807) scale(2.88656 0.98955)">
<stop offset="0.06" stop-color="#26A9E0"/>
<stop offset="0.47" stop-color="#B3FDFF"/>
<stop offset="1" stop-color="#26A9E0"/>
</radialGradient>
</defs>
</svg>
